<svg width="15" height="16" viewBox="0 0 15 16" fill="none" xmlns="http://www.w3.org/2000/svg">
<path d="M1.58333 15.8333C1.14792 15.8333 0.775042 15.6784 0.464708 15.3686C0.154903 15.0583 0 14.6854 0 14.25V3.16667C0 2.73125 0.154903 2.35864 0.464708 2.04883C0.775042 1.7385 1.14792 1.58333 1.58333 1.58333H2.375V0H3.95833V1.58333H10.2917V0H11.875V1.58333H12.6667C13.1021 1.58333 13.475 1.7385 13.7853 2.04883C14.0951 2.35864 14.25 2.73125 14.25 3.16667V14.25C14.25 14.6854 14.0951 15.0583 13.7853 15.3686C13.475 15.6784 13.1021 15.8333 12.6667 15.8333H1.58333ZM1.58333 14.25H12.6667V6.33334H1.58333V14.25ZM1.58333 4.75H12.6667V3.16667H1.58333V4.75ZM1.58333 4.75V3.16667V4.75ZM7.125 9.5C6.90069 9.5 6.71281 9.424 6.56133 9.272C6.40933 9.12053 6.33333 8.93264 6.33333 8.70834C6.33333 8.48403 6.40933 8.29588 6.56133 8.14388C6.71281 7.99241 6.90069 7.91667 7.125 7.91667C7.34931 7.91667 7.53746 7.99241 7.68946 8.14388C7.84093 8.29588 7.91667 8.48403 7.91667 8.70834C7.91667 8.93264 7.84093 9.12053 7.68946 9.272C7.53746 9.424 7.34931 9.5 7.125 9.5ZM3.95833 9.5C3.73403 9.5 3.54588 9.424 3.39388 9.272C3.2424 9.12053 3.16667 8.93264 3.16667 8.70834C3.16667 8.48403 3.2424 8.29588 3.39388 8.14388C3.54588 7.99241 3.73403 7.91667 3.95833 7.91667C4.18264 7.91667 4.37079 7.99241 4.52279 8.14388C4.67426 8.29588 4.75 8.48403 4.75 8.70834C4.75 8.93264 4.67426 9.12053 4.52279 9.272C4.37079 9.424 4.18264 9.5 3.95833 9.5ZM10.2917 9.5C10.0674 9.5 9.87947 9.424 9.728 9.272C9.576 9.12053 9.5 8.93264 9.5 8.70834C9.5 8.48403 9.576 8.29588 9.728 8.14388C9.87947 7.99241 10.0674 7.91667 10.2917 7.91667C10.516 7.91667 10.7039 7.99241 10.8553 8.14388C11.0073 8.29588 11.0833 8.48403 11.0833 8.70834C11.0833 8.93264 11.0073 9.12053 10.8553 9.272C10.7039 9.424 10.516 9.5 10.2917 9.5ZM7.125 12.6667C6.90069 12.6667 6.71281 12.5907 6.56133 12.4387C6.40933 12.2872 6.33333 12.0993 6.33333 11.875C6.33333 11.6507 6.40933 11.4628 6.56133 11.3113C6.71281 11.1593 6.90069 11.0833 7.125 11.0833C7.34931 11.0833 7.53746 11.1593 7.68946 11.3113C7.84093 11.4628 7.91667 11.6507 7.91667 11.875C7.91667 12.0993 7.84093 12.2872 7.68946 12.4387C7.53746 12.5907 7.34931 12.6667 7.125 12.6667ZM3.95833 12.6667C3.73403 12.6667 3.54588 12.5907 3.39388 12.4387C3.2424 12.2872 3.16667 12.0993 3.16667 11.875C3.16667 11.6507 3.2424 11.4628 3.39388 11.3113C3.54588 11.1593 3.73403 11.0833 3.95833 11.0833C4.18264 11.0833 4.37079 11.1593 4.52279 11.3113C4.67426 11.4628 4.75 11.6507 4.75 11.875C4.75 12.0993 4.67426 12.2872 4.52279 12.4387C4.37079 12.5907 4.18264 12.6667 3.95833 12.6667ZM10.2917 12.6667C10.0674 12.6667 9.87947 12.5907 9.728 12.4387C9.576 12.2872 9.5 12.0993 9.5 11.875C9.5 11.6507 9.576 11.4628 9.728 11.3113C9.87947 11.1593 10.0674 11.0833 10.2917 11.0833C10.516 11.0833 10.7039 11.1593 10.8553 11.3113C11.0073 11.4628 11.0833 11.6507 11.0833 11.875C11.0833 12.0993 11.0073 12.2872 10.8553 12.4387C10.7039 12.5907 10.516 12.6667 10.2917 12.6667Z" fill="#B91C1C"/>
</svg>
