<svg width="17" height="17" viewBox="0 0 17 17" fill="none" xmlns="http://www.w3.org/2000/svg">
<path d="M8.8935 8.22649L10.7126 10.0456C10.8608 10.1938 10.935 10.3793 10.935 10.6019C10.935 10.8239 10.8608 11.0158 10.7126 11.1775C10.5509 11.3392 10.359 11.4201 10.137 11.4201C9.91437 11.4201 9.72221 11.3392 9.56051 11.1775L7.84245 9.45945C7.6538 9.2708 7.51231 9.06194 7.41799 8.83286C7.32366 8.60379 7.2765 8.3545 7.2765 8.085V5.6595C7.2765 5.43042 7.35412 5.23827 7.50935 5.08304C7.66404 4.92835 7.85592 4.851 8.085 4.851C8.31407 4.851 8.50623 4.92835 8.66146 5.08304C8.81615 5.23827 8.8935 5.43042 8.8935 5.6595V8.22649ZM8.085 1.617C8.31407 1.617 8.50623 1.69435 8.66146 1.84904C8.81615 2.00427 8.8935 2.19642 8.8935 2.4255C8.8935 2.65457 8.81615 2.84673 8.66146 3.00196C8.50623 3.15665 8.31407 3.234 8.085 3.234C7.85592 3.234 7.66404 3.15665 7.50935 3.00196C7.35412 2.84673 7.2765 2.65457 7.2765 2.4255C7.2765 2.19642 7.35412 2.00427 7.50935 1.84904C7.66404 1.69435 7.85592 1.617 8.085 1.617ZM14.553 8.085C14.553 8.31407 14.4754 8.50596 14.3202 8.66065C14.1655 8.81588 13.9736 8.8935 13.7445 8.8935C13.5154 8.8935 13.3235 8.81588 13.1688 8.66065C13.0136 8.50596 12.936 8.31407 12.936 8.085C12.936 7.85592 13.0136 7.66377 13.1688 7.50854C13.3235 7.35385 13.5154 7.2765 13.7445 7.2765C13.9736 7.2765 14.1655 7.35385 14.3202 7.50854C14.4754 7.66377 14.553 7.85592 14.553 8.085ZM8.085 12.936C8.31407 12.936 8.50623 13.0136 8.66146 13.1688C8.81615 13.3235 8.8935 13.5154 8.8935 13.7445C8.8935 13.9736 8.81615 14.1655 8.66146 14.3202C8.50623 14.4754 8.31407 14.553 8.085 14.553C7.85592 14.553 7.66404 14.4754 7.50935 14.3202C7.35412 14.1655 7.2765 13.9736 7.2765 13.7445C7.2765 13.5154 7.35412 13.3235 7.50935 13.1688C7.66404 13.0136 7.85592 12.936 8.085 12.936ZM3.234 8.085C3.234 8.31407 3.15665 8.50596 3.00196 8.66065C2.84673 8.81588 2.65457 8.8935 2.4255 8.8935C2.19642 8.8935 2.00427 8.81588 1.84904 8.66065C1.69435 8.50596 1.617 8.31407 1.617 8.085C1.617 7.85592 1.69435 7.66377 1.84904 7.50854C2.00427 7.35385 2.19642 7.2765 2.4255 7.2765C2.65457 7.2765 2.84673 7.35385 3.00196 7.50854C3.15665 7.66377 3.234 7.85592 3.234 8.085ZM8.085 16.17C6.96657 16.17 5.91553 15.9576 4.93185 15.5329C3.94818 15.1087 3.09251 14.5328 2.36486 13.8051C1.63721 13.0775 1.06129 12.2218 0.637098 11.2381C0.212366 10.2545 0 9.20342 0 8.085C0 6.96657 0.212366 5.91553 0.637098 4.93185C1.06129 3.94818 1.63721 3.09251 2.36486 2.36486C3.09251 1.63721 3.94818 1.06102 4.93185 0.636289C5.91553 0.212096 6.96657 0 8.085 0C9.20342 0 10.2545 0.212096 11.2381 0.636289C12.2218 1.06102 13.0775 1.63721 13.8051 2.36486C14.5328 3.09251 15.1087 3.94818 15.5329 4.93185C15.9576 5.91553 16.17 6.96657 16.17 8.085C16.17 9.20342 15.9576 10.2545 15.5329 11.2381C15.1087 12.2218 14.5328 13.0775 13.8051 13.8051C13.0775 14.5328 12.2218 15.1087 11.2381 15.5329C10.2545 15.9576 9.20342 16.17 8.085 16.17ZM8.085 14.553C9.89065 14.553 11.4201 13.9264 12.6732 12.6732C13.9264 11.4201 14.553 9.89065 14.553 8.085C14.553 6.27935 13.9264 4.74994 12.6732 3.49676C11.4201 2.24359 9.89065 1.617 8.085 1.617C6.27935 1.617 4.74994 2.24359 3.49676 3.49676C2.24359 4.74994 1.617 6.27935 1.617 8.085C1.617 9.89065 2.24359 11.4201 3.49676 12.6732C4.74994 13.9264 6.27935 14.553 8.085 14.553Z" fill="#B91C1C"/>
</svg>
