<svg width="8" height="8" viewBox="0 0 8 8" fill="none" xmlns="http://www.w3.org/2000/svg">
<path d="M3.72598 6.523C3.75656 6.56742 3.79748 6.60373 3.84521 6.62882C3.89294 6.6539 3.94606 6.66701 3.99998 6.66701C4.0539 6.66701 4.10702 6.6539 4.15475 6.62882C4.20248 6.60373 4.2434 6.56742 4.27398 6.523L7.27398 2.18967C7.3087 2.13969 7.32907 2.08115 7.33286 2.0204C7.33665 1.95966 7.32372 1.89904 7.29547 1.84513C7.26723 1.79122 7.22475 1.74608 7.17266 1.71462C7.12056 1.68316 7.06084 1.66657 6.99998 1.66667H0.999979C0.93926 1.66692 0.879758 1.68372 0.827872 1.71526C0.775987 1.74679 0.73368 1.79188 0.705502 1.84567C0.677324 1.89945 0.664341 1.9599 0.667949 2.02051C0.671557 2.08112 0.691619 2.13961 0.725979 2.18967L3.72598 6.523Z" fill="white"/>
</svg>
